<svg xmlns="http://www.w3.org/2000/svg" xmlns:xlink="http://www.w3.org/1999/xlink" width="150" zoomAndPan="magnify" viewBox="0 0 112.5 112.499997" height="150" preserveAspectRatio="xMidYMid meet" version="1.0"><defs><clipPath id="25c256aab3"><path d="M 0 0.015625 L 112.003906 0.015625 L 112.003906 112 L 0 112 Z M 0 0.015625 " clip-rule="nonzero"/></clipPath></defs><path fill="#6711a4" d="M 22.042969 78.953125 L 25.714844 78.953125 L 25.714844 82.625 L 22.042969 82.625 Z M 22.042969 78.953125 " fill-opacity="1" fill-rule="nonzero"/><path fill="#6711a4" d="M 29.386719 78.953125 L 33.058594 78.953125 L 33.058594 82.625 L 29.386719 82.625 Z M 29.386719 78.953125 " fill-opacity="1" fill-rule="nonzero"/><path fill="#6711a4" d="M 14.703125 78.953125 L 18.371094 78.953125 L 18.371094 82.625 L 14.703125 82.625 Z M 14.703125 78.953125 " fill-opacity="1" fill-rule="nonzero"/><path fill="#6711a4" d="M 18.371094 16.539062 L 22.042969 16.539062 L 22.042969 23.878906 L 25.714844 23.878906 L 25.714844 16.539062 L 29.386719 16.539062 L 29.386719 12.867188 L 18.371094 12.867188 Z M 18.371094 16.539062 " fill-opacity="1" fill-rule="nonzero"/><path fill="#6711a4" d="M 75.28125 34.894531 C 68.195312 34.894531 62.429688 40.660156 62.429688 47.746094 C 62.429688 54.832031 68.195312 60.59375 75.28125 60.59375 C 82.367188 60.59375 88.128906 54.832031 88.128906 47.746094 C 88.128906 40.660156 82.367188 34.894531 75.28125 34.894531 Z M 75.28125 56.921875 C 70.21875 56.921875 66.101562 52.804688 66.101562 47.746094 C 66.101562 42.683594 70.21875 38.566406 75.28125 38.566406 C 80.339844 38.566406 84.457031 42.683594 84.457031 47.746094 C 84.457031 52.804688 80.339844 56.921875 75.28125 56.921875 Z M 75.28125 56.921875 " fill-opacity="1" fill-rule="nonzero"/><path fill="#6711a4" d="M 75.28125 42.238281 C 72.242188 42.238281 69.773438 44.707031 69.773438 47.746094 C 69.773438 50.78125 72.242188 53.253906 75.28125 53.253906 C 78.316406 53.253906 80.789062 50.78125 80.789062 47.746094 C 80.789062 44.707031 78.316406 42.238281 75.28125 42.238281 Z M 75.28125 49.582031 C 74.269531 49.582031 73.445312 48.757812 73.445312 47.746094 C 73.445312 46.734375 74.269531 45.910156 75.28125 45.910156 C 76.292969 45.910156 77.117188 46.734375 77.117188 47.746094 C 77.117188 48.757812 76.292969 49.582031 75.28125 49.582031 Z M 75.28125 49.582031 " fill-opacity="1" fill-rule="nonzero"/><g clip-path="url(#25c256aab3)"><path fill="#6711a4" d="M 110.160156 1.851562 L 55.085938 1.851562 C 53.0625 1.851562 51.414062 3.5 51.414062 5.523438 L 51.414062 17.613281 L 47.617188 21.414062 C 46.375 9.410156 36.207031 0.015625 23.878906 0.015625 C 10.722656 0.015625 0.015625 10.722656 0.015625 23.878906 C 0.015625 31.996094 4.210938 39.597656 11.03125 43.96875 L 11.03125 62.429688 C 11.03125 64.878906 12.644531 66.933594 14.855469 67.648438 C 15.597656 71.972656 19.347656 75.28125 23.878906 75.28125 C 28.410156 75.28125 32.164062 71.972656 32.902344 67.648438 C 35.113281 66.933594 36.730469 64.878906 36.730469 62.429688 L 36.730469 43.96875 C 39.75 42.03125 42.21875 39.4375 44.074219 36.46875 L 44.074219 86.296875 L 9.195312 86.296875 C 4.132812 86.296875 0.015625 90.414062 0.015625 95.472656 L 0.015625 102.816406 C 0.015625 107.878906 4.132812 111.996094 9.195312 111.996094 L 94.070312 111.996094 L 111.171875 103.445312 C 112.8125 102.625 113.832031 100.980469 113.832031 99.144531 L 113.832031 5.523438 C 113.832031 3.5 112.183594 1.851562 110.160156 1.851562 Z M 55.085938 5.523438 L 110.160156 5.523438 L 110.160156 94.339844 L 106.488281 92.503906 L 106.488281 9.195312 L 59.835938 9.195312 L 55.085938 13.941406 Z M 90.546875 41.429688 C 91.4375 43.574219 93.269531 45.125 95.472656 45.679688 L 95.472656 49.800781 C 93.28125 50.351562 91.441406 51.90625 90.546875 54.0625 C 89.65625 56.210938 89.851562 58.597656 91.019531 60.5625 L 88.105469 63.476562 C 86.164062 62.3125 83.761719 62.113281 81.605469 63.007812 C 79.453125 63.902344 77.902344 65.730469 77.34375 67.9375 L 73.222656 67.9375 C 72.671875 65.746094 71.121094 63.90625 68.964844 63.011719 C 66.808594 62.117188 64.417969 62.316406 62.460938 63.484375 L 59.550781 60.570312 C 60.710938 58.625 60.914062 56.222656 60.015625 54.0625 C 59.125 51.914062 57.292969 50.363281 55.089844 49.808594 L 55.089844 45.6875 C 57.277344 45.136719 59.121094 43.585938 60.015625 41.429688 C 60.90625 39.273438 60.710938 36.882812 59.542969 34.925781 L 62.457031 32.011719 C 64.40625 33.175781 66.808594 33.375 68.972656 32.476562 C 71.117188 31.585938 72.664062 29.757812 73.21875 27.554688 L 77.335938 27.554688 C 77.886719 29.742188 79.441406 31.585938 81.597656 32.480469 C 83.746094 33.371094 86.132812 33.179688 88.097656 32.007812 L 91.011719 34.921875 C 89.851562 36.863281 89.648438 39.265625 90.546875 41.429688 Z M 58.757812 15.460938 L 58.757812 23.878906 L 50.339844 23.878906 Z M 23.878906 71.609375 C 21.488281 71.609375 19.46875 70.070312 18.710938 67.9375 L 29.046875 67.9375 C 28.289062 70.070312 26.269531 71.609375 23.878906 71.609375 Z M 33.058594 62.429688 C 33.058594 63.441406 32.234375 64.265625 31.222656 64.265625 L 16.535156 64.265625 C 15.527344 64.265625 14.703125 63.441406 14.703125 62.429688 L 14.703125 60.59375 L 33.058594 60.59375 Z M 14.703125 56.921875 L 14.703125 53.253906 L 33.058594 53.253906 L 33.058594 56.921875 Z M 33.972656 41.347656 L 33.058594 41.878906 L 33.058594 49.582031 L 29.386719 49.582031 L 29.386719 32.359375 L 36.730469 28.6875 L 36.730469 20.210938 L 33.058594 20.210938 L 33.058594 26.417969 L 25.714844 30.089844 L 25.714844 49.582031 L 22.042969 49.582031 L 22.042969 30.089844 L 14.703125 26.417969 L 14.703125 20.210938 L 11.03125 20.210938 L 11.03125 28.6875 L 18.371094 32.359375 L 18.371094 49.582031 L 14.703125 49.582031 L 14.703125 41.878906 L 13.785156 41.347656 C 7.554688 37.738281 3.6875 31.046875 3.6875 23.878906 C 3.6875 12.746094 12.746094 3.6875 23.878906 3.6875 C 35.011719 3.6875 44.074219 12.746094 44.074219 23.878906 C 44.074219 31.046875 40.203125 37.738281 33.972656 41.347656 Z M 47.746094 27.550781 L 61.722656 27.550781 L 55.808594 33.464844 L 54.546875 34.800781 L 55.84375 36.097656 C 56.875 37.128906 57.179688 38.671875 56.625 40.019531 C 56.0625 41.367188 54.757812 42.238281 53.25 42.238281 L 51.414062 42.238281 L 51.414062 51.417969 L 51.464844 53.253906 L 53.300781 53.253906 C 54.757812 53.253906 56.0625 54.121094 56.625 55.46875 C 57.183594 56.820312 56.878906 58.359375 55.828125 59.410156 L 54.492188 60.707031 L 61 67.214844 L 62.332031 68.476562 L 63.632812 67.179688 C 64.664062 66.144531 66.203125 65.839844 67.554688 66.398438 C 68.902344 66.960938 69.773438 68.265625 69.773438 69.773438 L 69.773438 71.609375 L 78.953125 71.609375 L 80.789062 71.566406 L 80.789062 69.730469 C 80.789062 68.269531 81.660156 66.960938 83.011719 66.402344 C 84.355469 65.839844 85.890625 66.144531 86.960938 67.214844 L 88.261719 68.515625 L 94.75 62.023438 L 96.015625 60.691406 L 94.714844 59.390625 C 93.683594 58.359375 93.378906 56.820312 93.9375 55.46875 C 94.496094 54.121094 95.800781 53.253906 97.257812 53.253906 L 99.144531 53.253906 L 99.144531 44.074219 L 99.09375 42.238281 L 97.257812 42.238281 C 95.800781 42.238281 94.496094 41.367188 93.9375 40.019531 C 93.375 38.671875 93.679688 37.128906 94.75 36.0625 L 96.046875 34.765625 L 89.554688 28.273438 L 88.222656 27.011719 L 86.925781 28.308594 C 85.890625 29.339844 84.351562 29.648438 83.003906 29.089844 C 81.65625 28.527344 80.789062 27.222656 80.789062 25.714844 L 80.789062 23.878906 L 71.609375 23.878906 L 69.773438 23.941406 L 69.773438 25.777344 C 69.773438 27.230469 68.90625 28.527344 67.566406 29.082031 C 66.210938 29.644531 64.664062 29.339844 63.597656 28.273438 L 62.429688 27.109375 L 62.429688 12.867188 L 102.816406 12.867188 L 102.816406 90.667969 L 94.070312 86.296875 L 47.746094 86.296875 Z M 91.800781 97.308594 L 25.714844 97.308594 L 25.714844 89.964844 L 91.800781 89.964844 Z M 22.042969 108.324219 L 18.371094 108.324219 L 18.371094 89.964844 L 22.042969 89.964844 Z M 25.714844 100.980469 L 91.800781 100.980469 L 91.800781 108.324219 L 25.714844 108.324219 Z M 95.472656 91.101562 L 102.816406 94.773438 L 102.816406 103.519531 L 95.472656 107.1875 Z M 3.6875 102.816406 L 3.6875 95.472656 C 3.6875 92.4375 6.15625 89.964844 9.195312 89.964844 L 14.703125 89.964844 L 14.703125 108.324219 L 9.195312 108.324219 C 6.15625 108.324219 3.6875 105.851562 3.6875 102.816406 Z M 109.53125 100.160156 L 106.488281 101.683594 L 106.488281 96.609375 L 109.53125 98.128906 C 109.917969 98.324219 110.160156 98.710938 110.160156 99.144531 C 110.160156 99.578125 109.917969 99.964844 109.53125 100.160156 Z M 109.53125 100.160156 " fill-opacity="1" fill-rule="nonzero"/></g><path fill="#6711a4" d="M 84.457031 16.539062 L 99.144531 16.539062 L 99.144531 20.210938 L 84.457031 20.210938 Z M 84.457031 16.539062 " fill-opacity="1" fill-rule="nonzero"/><path fill="#6711a4" d="M 73.445312 16.539062 L 80.789062 16.539062 L 80.789062 20.210938 L 73.445312 20.210938 Z M 73.445312 16.539062 " fill-opacity="1" fill-rule="nonzero"/><path fill="#6711a4" d="M 84.457031 71.609375 L 99.144531 71.609375 L 99.144531 75.28125 L 84.457031 75.28125 Z M 84.457031 71.609375 " fill-opacity="1" fill-rule="nonzero"/><path fill="#6711a4" d="M 80.789062 78.953125 L 99.144531 78.953125 L 99.144531 82.625 L 80.789062 82.625 Z M 80.789062 78.953125 " fill-opacity="1" fill-rule="nonzero"/></svg>