<svg xmlns="http://www.w3.org/2000/svg" xmlns:xlink="http://www.w3.org/1999/xlink" width="400" zoomAndPan="magnify" viewBox="0 0 300 299.999988" height="400" preserveAspectRatio="xMidYMid meet" version="1.0"><defs><clipPath id="36146b4a10"><path d="M 3.503906 3.503906 L 296.496094 3.503906 L 296.496094 296.496094 L 3.503906 296.496094 Z M 3.503906 3.503906 " clip-rule="nonzero"/></clipPath><clipPath id="9b271de175"><path d="M 150 3.503906 C 69.09375 3.503906 3.503906 69.09375 3.503906 150 C 3.503906 230.90625 69.09375 296.496094 150 296.496094 C 230.90625 296.496094 296.496094 230.90625 296.496094 150 C 296.496094 69.09375 230.90625 3.503906 150 3.503906 Z M 150 3.503906 " clip-rule="nonzero"/></clipPath><clipPath id="ce058e4ea8"><path d="M 32.722656 95 L 134 95 L 134 244.875 L 32.722656 244.875 Z M 32.722656 95 " clip-rule="nonzero"/></clipPath><clipPath id="bca2bbfdad"><path d="M 70 48.148438 L 244 48.148438 L 244 147 L 70 147 Z M 70 48.148438 " clip-rule="nonzero"/></clipPath><clipPath id="7eb4ee0958"><path d="M 91 207 L 266.863281 207 L 266.863281 244 L 91 244 Z M 91 207 " clip-rule="nonzero"/></clipPath></defs><g clip-path="url(#36146b4a10)"><g clip-path="url(#9b271de175)"><path fill="#4f1964" d="M 3.503906 3.503906 L 296.496094 3.503906 L 296.496094 296.496094 L 3.503906 296.496094 Z M 3.503906 3.503906 " fill-opacity="1" fill-rule="nonzero"/></g></g><g clip-path="url(#ce058e4ea8)"><path fill="#ffffff" d="M 93.636719 152.921875 C 94.632812 154.117188 96.121094 154.804688 97.667969 154.804688 C 97.777344 154.804688 97.886719 154.800781 97.996094 154.796875 C 99.660156 154.691406 101.183594 153.792969 102.085938 152.390625 L 116.199219 130.398438 C 117.527344 128.328125 117.214844 125.683594 115.601562 123.96875 L 133.976562 96.566406 L 131.796875 95.101562 L 113.382812 122.566406 C 111.171875 121.855469 108.675781 122.679688 107.359375 124.726562 L 97.109375 140.699219 L 83.3125 124.195312 C 82.402344 123.105469 81.144531 122.480469 79.835938 122.34375 C 79.332031 122.175781 78.792969 122.082031 78.234375 122.082031 L 52.871094 122.082031 C 52.820312 122.082031 52.769531 122.089844 52.71875 122.089844 C 51.542969 122.09375 49.53125 122.335938 47.238281 123.492188 C 43.707031 125.246094 39.898438 129.074219 37.238281 135.859375 C 34.539062 142.675781 32.730469 152.527344 32.722656 167.402344 C 32.722656 171.246094 32.84375 175.425781 33.117188 179.980469 C 33.277344 182.769531 35.59375 184.921875 38.351562 184.921875 C 38.457031 184.921875 38.5625 184.917969 38.664062 184.914062 C 41.558594 184.742188 43.769531 182.257812 43.601562 179.363281 C 43.34375 174.996094 43.226562 171.019531 43.226562 167.398438 C 43.203125 151.5 45.523438 142.570312 47.800781 137.910156 L 47.800781 236.386719 C 47.800781 240.871094 51.433594 244.5 55.914062 244.5 C 60.398438 244.5 64.03125 240.871094 64.03125 236.386719 L 64.03125 177.125 L 67.074219 177.125 L 67.074219 236.386719 C 67.074219 240.871094 70.710938 244.5 75.191406 244.5 C 79.671875 244.5 83.308594 240.871094 83.308594 236.386719 L 83.308594 140.566406 Z M 93.636719 152.921875 " fill-opacity="1" fill-rule="nonzero"/></g><path fill="#ffffff" d="M 80.324219 103.570312 C 80.324219 104.539062 80.230469 105.5 80.039062 106.453125 C 79.851562 107.402344 79.570312 108.324219 79.199219 109.222656 C 78.828125 110.117188 78.375 110.96875 77.835938 111.777344 C 77.296875 112.582031 76.683594 113.328125 75.996094 114.015625 C 75.3125 114.699219 74.566406 115.3125 73.757812 115.851562 C 72.953125 116.390625 72.101562 116.84375 71.207031 117.214844 C 70.308594 117.585938 69.386719 117.867188 68.433594 118.054688 C 67.484375 118.246094 66.523438 118.339844 65.554688 118.339844 C 64.582031 118.339844 63.621094 118.246094 62.671875 118.054688 C 61.71875 117.867188 60.796875 117.585938 59.902344 117.214844 C 59.003906 116.84375 58.152344 116.390625 57.347656 115.851562 C 56.539062 115.3125 55.792969 114.699219 55.109375 114.015625 C 54.421875 113.328125 53.8125 112.582031 53.273438 111.777344 C 52.734375 110.96875 52.277344 110.117188 51.90625 109.222656 C 51.535156 108.324219 51.257812 107.402344 51.066406 106.453125 C 50.878906 105.5 50.78125 104.539062 50.78125 103.570312 C 50.78125 102.601562 50.878906 101.640625 51.066406 100.6875 C 51.257812 99.738281 51.535156 98.8125 51.90625 97.917969 C 52.277344 97.019531 52.734375 96.171875 53.273438 95.363281 C 53.8125 94.558594 54.421875 93.8125 55.109375 93.125 C 55.792969 92.441406 56.539062 91.828125 57.347656 91.289062 C 58.152344 90.75 59.003906 90.292969 59.902344 89.921875 C 60.796875 89.550781 61.71875 89.273438 62.671875 89.082031 C 63.621094 88.894531 64.582031 88.800781 65.554688 88.800781 C 66.523438 88.800781 67.484375 88.894531 68.433594 89.082031 C 69.386719 89.273438 70.308594 89.550781 71.207031 89.921875 C 72.101562 90.292969 72.953125 90.75 73.757812 91.289062 C 74.566406 91.828125 75.3125 92.441406 75.996094 93.125 C 76.683594 93.8125 77.296875 94.558594 77.835938 95.363281 C 78.375 96.171875 78.828125 97.019531 79.199219 97.917969 C 79.570312 98.8125 79.851562 99.738281 80.039062 100.6875 C 80.230469 101.640625 80.324219 102.601562 80.324219 103.570312 Z M 80.324219 103.570312 " fill-opacity="1" fill-rule="nonzero"/><g clip-path="url(#bca2bbfdad)"><path fill="#ffffff" d="M 243.828125 48.21875 L 70.519531 48.21875 L 70.519531 81.351562 L 73.800781 81.351562 L 73.800781 51.496094 L 240.542969 51.496094 L 240.542969 142.746094 L 118.835938 142.746094 L 118.835938 146.03125 L 243.828125 146.03125 Z M 243.828125 48.21875 " fill-opacity="1" fill-rule="nonzero"/></g><path fill="#ffffff" d="M 138.582031 188.960938 C 138.582031 189.929688 138.484375 190.890625 138.296875 191.839844 C 138.109375 192.792969 137.828125 193.714844 137.457031 194.613281 C 137.085938 195.507812 136.628906 196.359375 136.089844 197.164062 C 135.550781 197.972656 134.941406 198.71875 134.253906 199.402344 C 133.570312 200.089844 132.824219 200.703125 132.015625 201.242188 C 131.210938 201.78125 130.359375 202.234375 129.460938 202.605469 C 128.566406 202.976562 127.644531 203.257812 126.691406 203.445312 C 125.742188 203.636719 124.78125 203.730469 123.808594 203.730469 C 122.839844 203.730469 121.878906 203.636719 120.929688 203.445312 C 119.976562 203.257812 119.054688 202.976562 118.15625 202.605469 C 117.261719 202.234375 116.410156 201.78125 115.605469 201.242188 C 114.796875 200.703125 114.050781 200.089844 113.367188 199.402344 C 112.679688 198.71875 112.066406 197.972656 111.527344 197.164062 C 110.988281 196.359375 110.535156 195.507812 110.164062 194.613281 C 109.792969 193.714844 109.511719 192.792969 109.324219 191.839844 C 109.132812 190.890625 109.039062 189.929688 109.039062 188.960938 C 109.039062 187.988281 109.132812 187.027344 109.324219 186.078125 C 109.511719 185.125 109.792969 184.203125 110.164062 183.308594 C 110.535156 182.410156 110.988281 181.558594 111.527344 180.753906 C 112.066406 179.945312 112.679688 179.199219 113.367188 178.515625 C 114.050781 177.828125 114.796875 177.21875 115.605469 176.679688 C 116.410156 176.140625 117.261719 175.683594 118.15625 175.3125 C 119.054688 174.941406 119.976562 174.664062 120.929688 174.472656 C 121.878906 174.285156 122.839844 174.1875 123.808594 174.1875 C 124.78125 174.1875 125.742188 174.285156 126.691406 174.472656 C 127.644531 174.664062 128.566406 174.941406 129.460938 175.3125 C 130.359375 175.683594 131.210938 176.140625 132.015625 176.679688 C 132.824219 177.21875 133.570312 177.828125 134.253906 178.515625 C 134.941406 179.199219 135.550781 179.945312 136.089844 180.753906 C 136.628906 181.558594 137.085938 182.410156 137.457031 183.308594 C 137.828125 184.203125 138.109375 185.125 138.296875 186.078125 C 138.484375 187.027344 138.582031 187.988281 138.582031 188.960938 Z M 138.582031 188.960938 " fill-opacity="1" fill-rule="nonzero"/><path fill="#ffffff" d="M 194.050781 188.960938 C 194.050781 189.929688 193.957031 190.890625 193.769531 191.839844 C 193.578125 192.792969 193.300781 193.714844 192.929688 194.613281 C 192.558594 195.507812 192.101562 196.359375 191.5625 197.164062 C 191.023438 197.972656 190.410156 198.71875 189.726562 199.402344 C 189.039062 200.089844 188.292969 200.703125 187.488281 201.242188 C 186.679688 201.78125 185.832031 202.234375 184.933594 202.605469 C 184.039062 202.976562 183.113281 203.257812 182.164062 203.445312 C 181.210938 203.636719 180.25 203.730469 179.28125 203.730469 C 178.3125 203.730469 177.351562 203.636719 176.398438 203.445312 C 175.449219 203.257812 174.523438 202.976562 173.628906 202.605469 C 172.734375 202.234375 171.882812 201.78125 171.074219 201.242188 C 170.269531 200.703125 169.523438 200.089844 168.835938 199.402344 C 168.152344 198.71875 167.539062 197.972656 167 197.164062 C 166.460938 196.359375 166.007812 195.507812 165.636719 194.613281 C 165.265625 193.714844 164.984375 192.792969 164.796875 191.839844 C 164.605469 190.890625 164.511719 189.929688 164.511719 188.960938 C 164.511719 187.988281 164.605469 187.027344 164.796875 186.078125 C 164.984375 185.125 165.265625 184.203125 165.636719 183.308594 C 166.007812 182.410156 166.460938 181.558594 167 180.753906 C 167.539062 179.945312 168.152344 179.199219 168.835938 178.515625 C 169.523438 177.828125 170.269531 177.21875 171.074219 176.679688 C 171.882812 176.140625 172.734375 175.683594 173.628906 175.3125 C 174.523438 174.941406 175.449219 174.664062 176.398438 174.472656 C 177.351562 174.285156 178.3125 174.1875 179.28125 174.1875 C 180.25 174.1875 181.210938 174.285156 182.164062 174.472656 C 183.113281 174.664062 184.039062 174.941406 184.933594 175.3125 C 185.832031 175.683594 186.679688 176.140625 187.488281 176.679688 C 188.292969 177.21875 189.039062 177.828125 189.726562 178.515625 C 190.410156 179.199219 191.023438 179.945312 191.5625 180.753906 C 192.101562 181.558594 192.558594 182.410156 192.929688 183.308594 C 193.300781 184.203125 193.578125 185.125 193.769531 186.078125 C 193.957031 187.027344 194.050781 187.988281 194.050781 188.960938 Z M 194.050781 188.960938 " fill-opacity="1" fill-rule="nonzero"/><g clip-path="url(#7eb4ee0958)"><path fill="#ffffff" d="M 106.054688 223.304688 L 106.054688 243.210938 L 141.566406 243.210938 L 141.566406 223.332031 C 141.953125 224.128906 142.347656 225.046875 142.734375 226.113281 C 144.085938 229.863281 145.28125 235.382812 145.824219 243.210938 L 157.261719 243.210938 C 157.960938 233.140625 159.753906 226.929688 161.527344 223.300781 L 161.527344 243.210938 L 197.039062 243.210938 L 197.039062 223.332031 C 197.425781 224.128906 197.820312 225.046875 198.207031 226.113281 C 199.558594 229.863281 200.753906 235.382812 201.296875 243.210938 L 212.730469 243.210938 C 213.429688 233.140625 215.226562 226.929688 217 223.300781 L 217 243.210938 L 252.507812 243.210938 L 252.507812 223.332031 C 252.898438 224.128906 253.289062 225.046875 253.679688 226.113281 C 255.03125 229.863281 256.222656 235.382812 256.765625 243.210938 L 267.289062 243.210938 C 266.414062 229.289062 263.636719 220.863281 260.074219 215.417969 C 257.917969 212.144531 255.394531 210.046875 253.0625 208.882812 C 250.820312 207.75 248.847656 207.496094 247.664062 207.480469 C 247.589844 207.480469 247.511719 207.46875 247.433594 207.46875 L 222.070312 207.46875 C 221.984375 207.46875 221.898438 207.480469 221.8125 207.484375 C 220.625 207.5 218.667969 207.757812 216.441406 208.882812 C 213.152344 210.511719 209.632812 213.941406 207.011719 219.878906 C 206.261719 218.199219 205.457031 216.722656 204.601562 215.417969 C 202.445312 212.144531 199.921875 210.046875 197.59375 208.882812 C 195.347656 207.75 193.375 207.496094 192.191406 207.480469 C 192.117188 207.476562 192.039062 207.46875 191.960938 207.46875 L 166.597656 207.46875 C 166.511719 207.46875 166.425781 207.476562 166.339844 207.480469 C 165.152344 207.5 163.195312 207.757812 160.96875 208.882812 C 157.679688 210.511719 154.160156 213.941406 151.539062 219.878906 C 150.792969 218.199219 149.984375 216.71875 149.128906 215.417969 C 146.972656 212.144531 144.453125 210.042969 142.121094 208.882812 C 139.878906 207.75 137.90625 207.496094 136.722656 207.480469 C 136.644531 207.476562 136.570312 207.46875 136.488281 207.46875 L 111.128906 207.46875 C 111.039062 207.46875 110.953125 207.476562 110.867188 207.480469 C 109.679688 207.5 107.722656 207.757812 105.496094 208.882812 C 101.964844 210.632812 98.15625 214.460938 95.492188 221.25 C 93.421875 226.476562 91.878906 233.507812 91.269531 243.207031 L 101.785156 243.207031 C 102.488281 233.140625 104.285156 226.929688 106.054688 223.304688 Z M 106.054688 223.304688 " fill-opacity="1" fill-rule="nonzero"/></g><path fill="#ffffff" d="M 249.523438 188.960938 C 249.523438 189.929688 249.429688 190.890625 249.238281 191.839844 C 249.050781 192.792969 248.769531 193.714844 248.398438 194.613281 C 248.027344 195.507812 247.574219 196.359375 247.035156 197.164062 C 246.496094 197.972656 245.882812 198.71875 245.199219 199.402344 C 244.511719 200.089844 243.765625 200.703125 242.960938 201.242188 C 242.152344 201.78125 241.300781 202.234375 240.40625 202.605469 C 239.507812 202.976562 238.585938 203.257812 237.636719 203.445312 C 236.683594 203.636719 235.722656 203.730469 234.753906 203.730469 C 233.785156 203.730469 232.824219 203.636719 231.871094 203.445312 C 230.921875 203.257812 229.996094 202.976562 229.101562 202.605469 C 228.203125 202.234375 227.355469 201.78125 226.546875 201.242188 C 225.742188 200.703125 224.996094 200.089844 224.308594 199.402344 C 223.625 198.71875 223.011719 197.972656 222.472656 197.164062 C 221.933594 196.359375 221.476562 195.507812 221.105469 194.613281 C 220.734375 193.714844 220.457031 192.792969 220.265625 191.839844 C 220.078125 190.890625 219.984375 189.929688 219.984375 188.960938 C 219.984375 187.988281 220.078125 187.027344 220.265625 186.078125 C 220.457031 185.125 220.734375 184.203125 221.105469 183.308594 C 221.476562 182.410156 221.933594 181.558594 222.472656 180.753906 C 223.011719 179.945312 223.625 179.199219 224.308594 178.515625 C 224.996094 177.828125 225.742188 177.21875 226.546875 176.679688 C 227.355469 176.140625 228.203125 175.683594 229.101562 175.3125 C 229.996094 174.941406 230.921875 174.664062 231.871094 174.472656 C 232.824219 174.285156 233.785156 174.1875 234.753906 174.1875 C 235.722656 174.1875 236.683594 174.285156 237.636719 174.472656 C 238.585938 174.664062 239.507812 174.941406 240.40625 175.3125 C 241.300781 175.683594 242.152344 176.140625 242.960938 176.679688 C 243.765625 177.21875 244.511719 177.828125 245.199219 178.515625 C 245.882812 179.199219 246.496094 179.945312 247.035156 180.753906 C 247.574219 181.558594 248.027344 182.410156 248.398438 183.308594 C 248.769531 184.203125 249.050781 185.125 249.238281 186.078125 C 249.429688 187.027344 249.523438 187.988281 249.523438 188.960938 Z M 249.523438 188.960938 " fill-opacity="1" fill-rule="nonzero"/></svg>