<svg xmlns="http://www.w3.org/2000/svg" xmlns:xlink="http://www.w3.org/1999/xlink" width="400" zoomAndPan="magnify" viewBox="0 0 300 299.999988" height="400" preserveAspectRatio="xMidYMid meet" version="1.0"><defs><clipPath id="a5e38962eb"><path d="M 3.074219 3.074219 L 296.925781 3.074219 L 296.925781 296.925781 L 3.074219 296.925781 Z M 3.074219 3.074219 " clip-rule="nonzero"/></clipPath><clipPath id="8f2fd88254"><path d="M 150 3.074219 C 68.855469 3.074219 3.074219 68.855469 3.074219 150 C 3.074219 231.144531 68.855469 296.925781 150 296.925781 C 231.144531 296.925781 296.925781 231.144531 296.925781 150 C 296.925781 68.855469 231.144531 3.074219 150 3.074219 Z M 150 3.074219 " clip-rule="nonzero"/></clipPath><clipPath id="5261cf22a6"><path d="M 52 38.398438 L 259.949219 38.398438 L 259.949219 252.648438 L 52 252.648438 Z M 52 38.398438 " clip-rule="nonzero"/></clipPath></defs><g clip-path="url(#a5e38962eb)"><g clip-path="url(#8f2fd88254)"><path fill="#4f1964" d="M 3.074219 3.074219 L 296.925781 3.074219 L 296.925781 296.925781 L 3.074219 296.925781 Z M 3.074219 3.074219 " fill-opacity="1" fill-rule="nonzero"/></g></g><g clip-path="url(#5261cf22a6)"><path fill="#ffffff" d="M 91.464844 38.398438 C 86.492188 38.398438 82.421875 42.46875 82.421875 47.429688 L 82.421875 78.539062 C 82.421875 83.511719 86.492188 87.566406 91.464844 87.566406 L 98.480469 87.566406 L 98.480469 99.859375 C 98.480469 101.691406 100.613281 102.691406 102.015625 101.53125 L 118.863281 87.566406 L 136.839844 87.566406 L 136.839844 94.148438 C 136.839844 99.964844 141.582031 104.726562 147.394531 104.726562 L 183.15625 104.726562 L 198.683594 117.609375 C 194.242188 122.433594 191.503906 128.855469 191.503906 135.917969 C 191.503906 150.835938 203.644531 162.976562 218.566406 162.976562 C 233.488281 162.976562 245.625 150.835938 245.625 135.917969 C 245.625 120.996094 233.488281 108.855469 218.566406 108.855469 C 214.582031 108.855469 210.8125 109.730469 207.40625 111.285156 L 207.40625 104.726562 L 216.457031 104.726562 C 222.273438 104.726562 227.011719 99.964844 227.011719 94.148438 L 227.011719 56.089844 C 227.011719 50.273438 222.273438 45.523438 216.457031 45.523438 L 156.839844 45.523438 C 155.957031 41.464844 152.324219 38.398438 148.011719 38.398438 Z M 91.464844 42.722656 L 148.011719 42.722656 C 149.910156 42.722656 151.1875 43.957031 151.941406 45.523438 L 147.394531 45.523438 C 141.582031 45.523438 136.839844 50.273438 136.839844 56.089844 L 136.839844 83.246094 L 118.085938 83.246094 C 117.585938 83.246094 117.097656 83.414062 116.703125 83.746094 L 102.804688 95.257812 L 102.804688 85.40625 C 102.804688 84.214844 101.835938 83.246094 100.644531 83.246094 L 91.464844 83.246094 C 88.8125 83.246094 86.757812 81.1875 86.757812 78.539062 L 86.757812 47.429688 C 86.757812 44.789062 88.8125 42.722656 91.464844 42.722656 Z M 147.394531 49.859375 L 216.457031 49.859375 C 219.941406 49.859375 222.6875 52.59375 222.6875 56.089844 L 222.6875 94.148438 C 222.6875 97.644531 219.941406 100.390625 216.457031 100.390625 L 205.242188 100.390625 C 204.050781 100.390625 203.082031 101.359375 203.082031 102.550781 L 203.082031 113.753906 C 202.675781 114.042969 202.28125 114.339844 201.890625 114.640625 L 185.316406 100.890625 C 184.933594 100.570312 184.445312 100.390625 183.933594 100.390625 L 147.394531 100.390625 C 143.914062 100.390625 141.164062 97.644531 141.164062 94.148438 L 141.164062 56.089844 C 141.164062 55.652344 141.207031 55.226562 141.292969 54.820312 C 141.867188 51.957031 144.347656 49.859375 147.394531 49.859375 Z M 154.5625 72.242188 C 151.632812 72.199219 151.632812 76.621094 154.5625 76.578125 L 209.289062 76.578125 C 212.21875 76.621094 212.21875 72.199219 209.289062 72.242188 Z M 154.5625 84.4375 C 151.632812 84.394531 151.632812 88.8125 154.5625 88.773438 L 188.769531 88.773438 C 191.699219 88.8125 191.699219 84.394531 188.769531 84.4375 Z M 202.453125 84.4375 C 199.523438 84.394531 199.523438 88.8125 202.453125 88.773438 L 209.289062 88.773438 C 212.21875 88.8125 212.21875 84.394531 209.289062 84.4375 Z M 93.582031 108.855469 C 78.664062 108.855469 66.523438 120.996094 66.523438 135.917969 C 66.523438 150.835938 78.664062 162.976562 93.582031 162.976562 C 108.503906 162.976562 120.644531 150.835938 120.644531 135.917969 C 120.644531 120.996094 108.503906 108.855469 93.582031 108.855469 Z M 93.582031 113.179688 C 106.171875 113.179688 116.320312 123.339844 116.320312 135.917969 C 116.320312 148.496094 106.171875 158.644531 93.582031 158.644531 C 81.003906 158.644531 70.855469 148.496094 70.855469 135.917969 C 70.855469 123.339844 81.003906 113.179688 93.582031 113.179688 Z M 218.566406 113.179688 C 231.144531 113.179688 241.292969 123.339844 241.292969 135.917969 C 241.292969 148.496094 231.144531 158.644531 218.566406 158.644531 C 205.976562 158.644531 195.828125 148.496094 195.828125 135.917969 C 195.828125 129.316406 198.640625 123.402344 203.113281 119.25 C 203.199219 119.199219 203.285156 119.132812 203.347656 119.070312 C 204.304688 118.195312 205.328125 117.410156 206.414062 116.714844 C 206.425781 116.707031 206.445312 116.695312 206.46875 116.671875 C 209.972656 114.46875 214.105469 113.179688 218.566406 113.179688 Z M 78.664062 166.023438 C 71.667969 166.097656 65.351562 169.664062 60.738281 175.03125 C 55.480469 181.167969 52.25 189.675781 52.25 198.570312 L 52.25 249.972656 C 52.25 251.167969 53.222656 252.136719 54.425781 252.136719 L 132.6875 252.136719 C 133.878906 252.136719 134.851562 251.167969 134.851562 249.972656 L 134.851562 198.570312 C 134.851562 180.792969 121.953125 166.183594 105.703125 166.183594 C 105.605469 166.183594 105.511719 166.195312 105.425781 166.203125 L 93.5625 167.792969 L 81.6875 166.203125 C 80.664062 166.066406 79.664062 166.011719 78.664062 166.023438 Z M 203.636719 166.023438 C 196.648438 166.097656 190.335938 169.664062 185.722656 175.03125 C 180.453125 181.167969 177.234375 189.675781 177.234375 198.570312 L 177.234375 249.972656 C 177.234375 251.167969 178.203125 252.136719 179.398438 252.136719 L 257.660156 252.136719 C 258.863281 252.136719 259.832031 251.167969 259.832031 249.972656 L 259.832031 198.570312 C 259.832031 180.792969 246.9375 166.183594 230.683594 166.183594 C 230.589844 166.183594 230.492188 166.195312 230.398438 166.203125 L 218.535156 167.792969 L 206.671875 166.203125 C 205.648438 166.066406 204.636719 166.011719 203.636719 166.023438 Z M 78.695312 170.347656 C 79.492188 170.347656 80.304688 170.390625 81.113281 170.496094 L 93.273438 172.125 C 93.453125 172.148438 93.65625 172.148438 93.847656 172.125 L 105.796875 170.519531 C 119.398438 170.582031 130.527344 182.902344 130.527344 198.570312 L 130.527344 247.8125 L 56.585938 247.8125 L 56.585938 198.570312 C 56.585938 190.730469 59.484375 183.136719 64.03125 177.855469 C 67.992188 173.234375 73.09375 170.390625 78.695312 170.347656 Z M 203.667969 170.347656 C 204.464844 170.347656 205.277344 170.390625 206.09375 170.496094 L 218.246094 172.125 C 218.4375 172.148438 218.628906 172.148438 218.820312 172.125 L 230.769531 170.519531 C 244.382812 170.570312 255.5 182.902344 255.5 198.570312 L 255.5 247.8125 L 181.558594 247.8125 L 181.558594 198.570312 C 181.558594 190.730469 184.464844 183.136719 189.003906 177.855469 C 192.976562 173.234375 198.066406 170.390625 203.667969 170.347656 Z M 203.667969 170.347656 " fill-opacity="1" fill-rule="nonzero"/></g></svg>