<svg xmlns="http://www.w3.org/2000/svg" xmlns:xlink="http://www.w3.org/1999/xlink" width="400" zoomAndPan="magnify" viewBox="0 0 300 299.999988" height="400" preserveAspectRatio="xMidYMid meet" version="1.0"><defs><clipPath id="2105992ab7"><path d="M 6.753906 6.753906 L 293.246094 6.753906 L 293.246094 293.246094 L 6.753906 293.246094 Z M 6.753906 6.753906 " clip-rule="nonzero"/></clipPath><clipPath id="e292e41839"><path d="M 150 6.753906 C 70.886719 6.753906 6.753906 70.886719 6.753906 150 C 6.753906 229.113281 70.886719 293.246094 150 293.246094 C 229.113281 293.246094 293.246094 229.113281 293.246094 150 C 293.246094 70.886719 229.113281 6.753906 150 6.753906 Z M 150 6.753906 " clip-rule="nonzero"/></clipPath><clipPath id="9bb5dc1e61"><path d="M 103 215 L 187 215 L 187 245.183594 L 103 245.183594 Z M 103 215 " clip-rule="nonzero"/></clipPath><clipPath id="ee97370512"><path d="M 101 45.734375 L 150 45.734375 L 150 95 L 101 95 Z M 101 45.734375 " clip-rule="nonzero"/></clipPath></defs><g clip-path="url(#2105992ab7)"><g clip-path="url(#e292e41839)"><path fill="#4f1964" d="M 6.753906 6.753906 L 293.246094 6.753906 L 293.246094 293.246094 L 6.753906 293.246094 Z M 6.753906 6.753906 " fill-opacity="1" fill-rule="nonzero"/></g></g><path fill="#ffffff" d="M 240.800781 69.804688 L 211.667969 69.804688 C 214.621094 72.96875 214.832031 78.039062 212.089844 81.414062 L 211.878906 81.835938 L 233.625 81.835938 L 233.625 183.597656 L 57.125 183.597656 L 57.125 81.835938 L 96.183594 81.835938 L 94.707031 77.828125 C 93.859375 75.082031 94.285156 72.125 95.972656 69.804688 L 49.949219 69.804688 C 47.203125 69.804688 45.089844 71.914062 45.089844 74.660156 L 45.089844 204.078125 C 45.089844 206.820312 47.203125 208.933594 49.949219 208.933594 L 240.800781 208.933594 C 243.546875 208.933594 245.65625 206.820312 245.65625 204.078125 L 245.65625 74.660156 C 245.65625 71.914062 243.546875 69.804688 240.800781 69.804688 Z M 145.375 202.386719 C 141.996094 202.386719 139.253906 199.644531 139.253906 196.265625 C 139.253906 192.886719 141.996094 190.144531 145.375 190.144531 C 148.753906 190.144531 151.496094 192.886719 151.496094 196.265625 C 151.496094 199.433594 148.753906 202.386719 145.375 202.386719 Z M 145.375 202.386719 " fill-opacity="1" fill-rule="nonzero"/><g clip-path="url(#9bb5dc1e61)"><path fill="#ffffff" d="M 186.964844 238.488281 L 186.964844 243.136719 C 186.964844 244.191406 186.121094 245.035156 185.066406 245.035156 L 105.683594 245.035156 C 104.628906 245.035156 103.785156 244.191406 103.785156 243.136719 L 103.785156 238.488281 C 103.785156 237.433594 104.628906 236.589844 105.683594 236.589844 L 119.828125 236.589844 L 123.628906 215.265625 L 167.332031 215.265625 L 171.132812 236.589844 L 185.277344 236.589844 C 186.121094 236.589844 186.964844 237.433594 186.964844 238.488281 Z M 186.964844 238.488281 " fill-opacity="1" fill-rule="nonzero"/></g><path fill="#ffffff" d="M 211.878906 90.28125 L 206.8125 89.648438 C 204.910156 89.4375 203.222656 88.171875 202.378906 86.269531 C 201.746094 84.371094 201.957031 82.472656 203.011719 80.78125 L 206.179688 76.769531 C 206.601562 76.136719 206.601562 75.292969 205.96875 74.660156 L 200.6875 69.382812 C 200.054688 68.746094 199.210938 68.746094 198.578125 69.171875 L 194.566406 72.335938 C 193.089844 73.605469 190.976562 73.816406 189.078125 72.96875 C 187.175781 72.335938 185.910156 70.648438 185.699219 68.746094 L 185.488281 63.890625 C 185.488281 63.046875 184.644531 62.414062 184.011719 62.414062 L 176.410156 62.414062 C 175.566406 62.414062 174.933594 63.046875 174.933594 63.890625 L 174.296875 68.960938 C 174.085938 70.859375 172.820312 72.546875 170.921875 73.179688 C 169.019531 74.027344 167.121094 73.816406 165.429688 72.546875 L 161.421875 69.382812 C 160.785156 68.960938 159.941406 68.960938 159.308594 69.59375 L 154.03125 74.871094 C 153.398438 75.503906 153.398438 76.347656 153.820312 76.980469 L 156.988281 80.992188 C 158.253906 82.472656 158.464844 84.582031 157.621094 86.480469 C 156.777344 88.382812 155.296875 89.648438 153.1875 89.859375 L 148.121094 90.492188 C 147.273438 90.492188 146.640625 91.339844 146.640625 91.972656 L 146.640625 99.570312 C 146.640625 100.417969 147.273438 101.050781 148.121094 101.050781 L 153.1875 101.683594 C 155.085938 101.894531 156.777344 103.160156 157.621094 105.0625 C 158.464844 106.960938 158.042969 108.859375 156.988281 110.550781 L 153.820312 114.351562 C 153.398438 114.984375 153.398438 115.828125 154.03125 116.460938 L 159.308594 121.738281 C 159.941406 122.375 160.785156 122.375 161.421875 121.949219 L 165.429688 118.785156 C 166.910156 117.515625 169.019531 117.304688 170.921875 118.152344 C 172.820312 118.785156 174.085938 120.472656 174.296875 122.585938 L 174.933594 127.652344 C 174.933594 128.496094 175.777344 129.128906 176.410156 129.128906 L 184.011719 129.128906 C 184.855469 129.128906 185.488281 128.496094 185.488281 127.652344 L 186.121094 122.585938 C 186.332031 120.683594 187.597656 118.996094 189.5 118.152344 C 191.398438 117.304688 193.300781 117.515625 194.988281 118.785156 L 199 121.949219 C 199.632812 122.375 200.476562 122.375 201.109375 121.738281 L 206.390625 116.460938 C 207.023438 115.828125 207.023438 114.984375 206.601562 114.351562 L 203.433594 110.339844 C 202.167969 108.859375 201.957031 106.75 202.800781 104.851562 C 203.644531 102.949219 205.121094 101.683594 207.234375 101.472656 L 212.300781 100.839844 C 213.144531 100.628906 213.777344 99.992188 213.777344 99.359375 L 213.777344 91.761719 C 213.355469 90.914062 212.722656 90.28125 211.878906 90.28125 Z M 180 110.128906 C 171.976562 110.128906 165.429688 103.582031 165.429688 95.5625 C 165.429688 87.539062 171.976562 80.992188 180 80.992188 C 188.019531 80.992188 194.566406 87.539062 194.566406 95.5625 C 194.566406 103.582031 188.019531 110.128906 180 110.128906 Z M 180 110.128906 " fill-opacity="1" fill-rule="nonzero"/><path fill="#ffffff" d="M 180 86.90625 C 175.144531 86.90625 171.34375 90.703125 171.34375 95.5625 C 171.34375 100.417969 175.144531 104.214844 180 104.214844 C 184.855469 104.214844 188.65625 100.417969 188.65625 95.5625 C 188.65625 90.703125 184.855469 86.90625 180 86.90625 Z M 180 86.90625 " fill-opacity="1" fill-rule="nonzero"/><path fill="#ffffff" d="M 154.664062 125.75 L 149.597656 125.117188 C 147.695312 124.90625 146.007812 123.640625 145.164062 121.738281 C 144.53125 119.839844 144.742188 117.941406 145.796875 116.25 L 148.964844 112.238281 C 149.386719 111.605469 149.386719 110.761719 148.753906 110.128906 L 143.476562 104.851562 C 142.839844 104.214844 141.996094 104.214844 141.363281 104.640625 L 137.351562 107.804688 C 135.875 109.074219 133.761719 109.285156 131.863281 108.4375 C 129.960938 107.804688 128.695312 106.117188 128.484375 104.214844 L 127.851562 99.148438 C 127.851562 98.304688 127.007812 97.671875 126.375 97.671875 L 118.773438 97.671875 C 117.929688 97.671875 117.296875 98.304688 117.296875 99.148438 L 116.664062 104.214844 C 116.449219 106.117188 115.183594 107.804688 113.285156 108.4375 C 111.382812 109.285156 109.484375 109.074219 107.796875 107.804688 L 103.785156 104.640625 C 103.148438 104.214844 102.304688 104.214844 101.671875 104.851562 L 96.816406 110.339844 C 96.183594 110.972656 96.183594 111.816406 96.605469 112.449219 L 99.773438 116.460938 C 101.039062 117.941406 101.25 120.050781 100.40625 121.949219 C 99.5625 123.851562 98.082031 125.117188 95.972656 125.328125 L 90.90625 125.960938 C 90.0625 125.960938 89.425781 126.804688 89.425781 127.441406 L 89.425781 135.039062 C 89.425781 135.886719 90.0625 136.519531 90.90625 136.519531 L 95.972656 137.152344 C 97.871094 137.363281 99.5625 138.628906 100.40625 140.53125 C 101.25 142.429688 100.828125 144.328125 99.773438 146.019531 L 96.816406 149.820312 C 96.394531 150.453125 96.394531 151.296875 97.027344 151.929688 L 102.304688 157.207031 C 102.9375 157.839844 103.785156 157.839844 104.417969 157.417969 L 108.429688 154.253906 C 109.90625 152.984375 112.015625 152.773438 113.917969 153.617188 C 115.816406 154.253906 117.085938 155.941406 117.296875 158.050781 L 117.929688 163.121094 C 117.929688 163.964844 118.773438 164.597656 119.40625 164.597656 L 127.007812 164.597656 C 127.851562 164.597656 128.484375 163.964844 128.484375 163.121094 L 129.117188 158.050781 C 129.328125 156.152344 130.597656 154.464844 132.496094 153.617188 C 134.394531 152.773438 136.296875 152.984375 137.984375 154.253906 L 141.996094 157.417969 C 142.628906 157.839844 143.476562 157.839844 144.109375 157.207031 L 149.386719 151.929688 C 150.019531 151.296875 150.019531 150.453125 149.597656 149.820312 L 146.429688 145.808594 C 145.164062 144.328125 144.953125 142.21875 145.796875 140.320312 C 146.640625 138.417969 148.121094 137.152344 150.230469 136.941406 L 155.296875 136.308594 C 156.140625 136.097656 156.773438 135.460938 156.773438 134.828125 L 156.773438 127.230469 C 156.140625 126.382812 155.507812 125.75 154.664062 125.75 Z M 122.996094 145.597656 C 114.972656 145.597656 108.429688 139.050781 108.429688 131.027344 C 108.429688 123.007812 114.972656 116.460938 122.996094 116.460938 C 131.019531 116.460938 137.5625 123.007812 137.5625 131.027344 C 137.351562 139.050781 131.019531 145.597656 122.996094 145.597656 Z M 122.996094 145.597656 " fill-opacity="1" fill-rule="nonzero"/><path fill="#ffffff" d="M 122.996094 122.375 C 118.140625 122.375 114.339844 126.171875 114.339844 131.027344 C 114.339844 135.886719 118.140625 139.683594 122.996094 139.683594 C 127.851562 139.683594 131.652344 135.886719 131.652344 131.027344 C 131.652344 126.171875 127.851562 122.375 122.996094 122.375 Z M 122.996094 122.375 " fill-opacity="1" fill-rule="nonzero"/><g clip-path="url(#ee97370512)"><path fill="#ffffff" d="M 148.332031 76.769531 L 145.164062 74.660156 C 143.898438 73.816406 143.261719 72.546875 143.476562 71.070312 C 143.476562 69.59375 144.320312 68.324219 145.796875 67.691406 L 149.175781 66.003906 C 149.597656 65.792969 150.019531 65.160156 149.808594 64.527344 L 147.910156 59.246094 C 147.484375 59.035156 146.851562 58.613281 146.429688 58.824219 L 142.839844 59.667969 C 141.363281 60.09375 140.097656 59.457031 139.042969 58.402344 C 137.984375 57.347656 137.773438 55.871094 138.195312 54.390625 L 139.464844 50.800781 C 139.675781 50.167969 139.464844 49.535156 138.828125 49.324219 L 133.761719 46.792969 C 133.339844 46.582031 132.707031 46.792969 132.285156 47.214844 L 130.175781 50.378906 C 129.328125 51.648438 128.0625 52.28125 126.585938 52.070312 C 125.105469 52.070312 123.839844 51.226562 123.207031 49.957031 L 121.519531 46.582031 C 121.308594 45.945312 120.671875 45.734375 120.039062 45.945312 L 114.761719 47.847656 C 114.128906 48.058594 113.917969 48.691406 113.917969 49.113281 L 114.761719 52.703125 C 114.972656 54.179688 114.550781 55.449219 113.496094 56.503906 C 112.441406 57.558594 110.960938 57.769531 109.484375 57.347656 L 105.894531 56.082031 C 105.261719 55.871094 104.839844 56.082031 104.417969 56.714844 L 102.09375 61.570312 C 101.882812 62.203125 102.09375 62.625 102.515625 63.046875 L 105.683594 65.160156 C 106.949219 66.003906 107.582031 67.269531 107.371094 68.746094 C 107.371094 70.226562 106.527344 71.492188 105.261719 72.125 L 101.882812 73.816406 C 101.25 74.027344 101.039062 74.660156 101.25 75.292969 L 102.9375 80.570312 C 103.148438 81.203125 103.785156 81.414062 104.207031 81.414062 L 108.007812 80.570312 C 109.484375 80.148438 110.75 80.78125 111.804688 81.835938 C 112.863281 82.894531 113.074219 84.371094 112.652344 85.847656 L 111.382812 89.4375 C 111.171875 90.070312 111.382812 90.703125 112.015625 90.914062 L 117.085938 93.449219 C 117.507812 93.660156 118.351562 93.449219 118.5625 93.027344 L 120.671875 89.859375 C 121.519531 88.59375 122.785156 87.960938 124.261719 88.171875 C 125.742188 88.171875 127.007812 89.015625 127.640625 90.28125 L 129.328125 93.660156 C 129.539062 94.292969 130.175781 94.503906 130.808594 94.292969 L 136.085938 92.394531 C 136.71875 92.183594 136.929688 91.550781 136.929688 91.128906 L 136.085938 87.539062 C 135.664062 86.058594 136.296875 84.792969 137.351562 83.738281 C 138.40625 82.683594 139.886719 82.472656 141.363281 82.894531 L 144.953125 84.160156 C 145.585938 84.371094 146.007812 84.160156 146.429688 83.527344 L 148.753906 78.671875 C 148.964844 77.828125 148.753906 77.191406 148.332031 76.769531 Z M 120.882812 79.726562 C 115.605469 77.191406 113.496094 70.859375 116.027344 65.582031 C 118.5625 60.304688 124.894531 58.191406 130.175781 60.726562 C 135.453125 63.257812 137.5625 69.59375 135.03125 74.871094 C 132.496094 79.9375 126.164062 82.261719 120.882812 79.726562 Z M 120.882812 79.726562 " fill-opacity="1" fill-rule="nonzero"/></g><path fill="#ffffff" d="M 128.484375 64.316406 C 125.316406 62.835938 121.519531 64.101562 120.039062 67.269531 C 118.5625 70.4375 119.828125 74.238281 122.996094 75.714844 C 126.164062 77.191406 129.960938 75.925781 131.441406 72.757812 C 132.917969 69.804688 131.652344 66.003906 128.484375 64.316406 Z M 128.484375 64.316406 " fill-opacity="1" fill-rule="nonzero"/></svg>